# xmcd CD database file
#
# Track frame offsets:
#	200
#	15267
#	32292
#	54197
#	75012
#	97930
#	119335
#	147120
#	176200
#	194535
#	223325
#
# Disc length: 3598 seconds
#
# Revision: 0
# Processed by: cddbd v1.4PL0 Copyright (c) Steve Scherf et al.
# Submitted via: Feurio! 1.65 - http://www.feurio.com
#
DISCID=820e0c0b
DTITLE=Groundhogs - Hogs On The Road
DYEAR=1900
DGENRE=Blues
TTITLE0=Express Man
TTITLE1=Strange Town
TTITLE2=Eccentric Man
TTITLE3=Back Against The Wall
TTITLE4=Split Part 1
TTITLE5=Garden
TTITLE6=Waiting In The Shadows
TTITLE7=Light My Light
TTITLE8=Me And The Devil
TTITLE9=Mistreated
TTITLE10=Cherry Red
EXTD=ARD MMG CDTL 008
EXTT0=
EXTT1=
EXTT2=
EXTT3=
EXTT4=
EXTT5=
EXTT6=
EXTT7=
EXTT8=
EXTT9=
EXTT10=
PLAYORDER=
